<?xml version='1.0' encoding='utf-8'?>
<svg xmlns="http://www.w3.org/2000/svg" viewBox="0 0 192 192" width="192" height="192">
    <defs>
        <linearGradient id="standard-gradient" x1="0%" y1="0%" x2="0%" y2="100%" gradientUnits="objectBoundingBox">
    <stop offset="0%" stop-color="#FF9900" />
    <stop offset="100%" stop-color="#FD2E00" />
</linearGradient></defs>
    <path d="M 181.969 152.311 C 178.442 141.975 170.295 133.829 160.082 130.156 L 108.039 111.673 C 102.567 125.171 91.988 136.114 78.732 142.071 L 149.867 142.802 C 161.663 142.924 172.605 146.474 181.969 152.311 Z M 109.68 106.809 L 161.783 125.292 C 173.213 129.427 182.333 138.424 186.467 149.855 C 186.954 147.666 187.197 145.258 187.197 142.826 C 187.197 130.424 181.238 119.48 171.998 112.646 L 104.999 63.4 C 109.498 71.547 112.051 80.788 112.051 90.759 C 112.051 96.352 111.138 101.703 109.68 106.809 Z M 37.877 69.357 C 42.741 65.224 49.064 62.791 55.873 62.791 C 62.075 62.791 67.79 64.858 72.41 68.263 L 106.822 93.678 C 106.457 99.393 105.241 104.864 103.175 109.971 L 63.413 80.545 C 55.995 75.073 47.24 71.182 37.877 69.357 Z M 106.457 83.706 L 77.152 61.941 C 71.194 57.562 63.777 55.01 55.873 55.01 C 36.174 55.01 20.124 71.06 20.124 90.759 C 20.124 110.458 36.174 126.508 55.873 126.508 C 62.561 126.508 68.884 124.563 74.233 121.401 L 49.672 92.217 L 61.953 89.301 L 99.648 117.145 C 90.649 131.859 74.356 141.83 55.873 141.83 C 27.662 141.83 4.803 118.969 4.803 90.759 C 4.803 62.548 27.662 39.689 55.873 39.689 C 81.652 39.689 102.931 58.779 106.457 83.706 Z" fill="url(#standard-gradient)" stroke="url(#standard-gradient)" stroke-linejoin="round" stroke-linecap="round" stroke-width="1" vector-effect="non-scaling-stroke" />
    </svg>
